<svg id="color_line" height="512" viewBox="0 0 74 74" width="512" xmlns="http://www.w3.org/2000/svg" data-name="color line"><circle cx="37" cy="37" fill="#fe7058" r="34"/><path d="m71 37a34.013 34.013 0 0 1 -20.65 31.28 34 34 0 0 0 -29.8-61.04 34.006 34.006 0 0 1 50.45 29.76z" fill="#ea6453"/><g fill="#323c6b"><path d="m18.533 38.967a103.808 103.808 0 0 1 -15.433-1.148.5.5 0 0 1 .148-.989 104.3 104.3 0 0 0 23.1.854c6.542-.466 11.922-2.688 15.99-6.6a19.646 19.646 0 0 0 6.035-14.584c-.135-5.668-2.47-9.96-6.94-12.756a.5.5 0 1 1 .529-.848c3.282 2.052 7.232 6.074 7.411 13.581a20.654 20.654 0 0 1 -6.334 15.323c-4.241 4.083-9.831 6.4-16.613 6.881q-3.999.285-7.893.286z"/><path d="m17 64.993a.5.5 0 0 1 -.144-.979 73.232 73.232 0 0 0 33.436-22.614 90.922 90.922 0 0 0 13.84-24.442.5.5 0 1 1 .934.356 91.914 91.914 0 0 1 -14 24.716 74.316 74.316 0 0 1 -33.926 22.942.508.508 0 0 1 -.14.021z"/><path d="m64.566 57.372a.5.5 0 0 1 -.462-.308c-1.742-4.195-8.475-18.693-21.942-29.12a91.5 91.5 0 0 0 -29.125-14.728.5.5 0 1 1 .289-.957 92.487 92.487 0 0 1 29.447 14.894c13.664 10.578 20.489 25.275 22.255 29.527a.5.5 0 0 1 -.462.692z"/><path d="m40.4 71.332a.5.5 0 0 1 -.093-.991c4.168-.8 6.979-3.333 11.687-15.572a40.756 40.756 0 0 1 5.029-9.514c6.011-8.239 11.771-9.218 13.968-9.255a.525.525 0 0 1 .509.491.5.5 0 0 1 -.491.509c-2.048.036-7.432.97-13.177 8.846a39.721 39.721 0 0 0 -4.9 9.284c-4.876 12.681-7.895 15.326-12.433 16.2a.518.518 0 0 1 -.099.002z"/><path d="m72.651 47.375a.51.51 0 0 1 -.134-.018.5.5 0 0 1 -.348-.616c.124-.449.229-.905.332-1.361l.056-.242a.5.5 0 1 1 .975.224l-.055.24c-.108.472-.216.943-.345 1.407a.5.5 0 0 1 -.481.366z"/><path d="m65.854 60.625a.5.5 0 0 1 -.39-.813 36.489 36.489 0 0 0 5.8-10.235.5.5 0 1 1 .938.346 37.434 37.434 0 0 1 -5.96 10.515.5.5 0 0 1 -.388.187z"/><path d="m8.927 13.431a.5.5 0 0 1 -.382-.823q.215-.253.436-.5a.5.5 0 0 1 .748.664q-.214.24-.42.484a.5.5 0 0 1 -.382.175z"/><path d="m12.188 10.082a.5.5 0 0 1 -.336-.871 37.685 37.685 0 0 1 8.769-5.94.5.5 0 0 1 .439.9 36.665 36.665 0 0 0 -8.536 5.783.5.5 0 0 1 -.336.128z"/><path d="m37 71.5a34.5 34.5 0 1 1 34.5-34.5 34.539 34.539 0 0 1 -34.5 34.5zm0-68a33.5 33.5 0 1 0 33.5 33.5 33.538 33.538 0 0 0 -33.5-33.5z"/></g><path d="m16.48 58.6a.6.6 0 0 1 -.419-.171c-.476-.464-.939-.938-1.384-1.433a.6.6 0 0 1 .895-.8c.425.475.871.93 1.327 1.375a.6.6 0 0 1 -.419 1.029z" fill="#fff"/><path d="m12.377 53.6a.6.6 0 0 1 -.5-.273 29.639 29.639 0 0 1 -4.442-11.417.6.6 0 0 1 1.184-.2 28.47 28.47 0 0 0 4.261 10.958.6.6 0 0 1 -.5.927z" fill="#fff"/></svg>